# xmcd
#
# Track frame offsets:
#	150
#	12352
#	33200
#	49605
#	65850
#	78311
#	95380
#	111005
#	143221
#
# Disc length: 2207 seconds
#
# Revision: 0
# Processed by: cddbd v1.5.1PL0 Copyright (c) Steve Scherf et al.
# Submitted via: EasyCDDAExtractor 8.0.2.1
#
DISCID=6f089d09
DTITLE=Jack Levitt - Viva La Revolucion!
DYEAR=2005
DGENRE=Country - Texas
TTITLE0=Morning Never Forgets
TTITLE1=Small Town Texas
TTITLE2=JW
TTITLE3=She Wants Me
TTITLE4=You
TTITLE5=The Invincible Man
TTITLE6=90 To Nothing
TTITLE7=Everything's Going Right
TTITLE8=Will Play 4 Beer
EXTD=
EXTT0=
EXTT1=
EXTT2=
EXTT3=
EXTT4=
EXTT5=
EXTT6=
EXTT7=
EXTT8=
PLAYORDER=
